<svg xmlns="http://www.w3.org/2000/svg" width="2000" height="1830" viewBox="0 0 2000 1830" version="1.1"><path d="M 897.500 378.798 C 885.424 379.996, 872.140 386.888, 861.451 397.500 C 837.243 421.534, 822.801 457.420, 777.141 607 C 770.006 630.375, 761.385 658.950, 757.984 670.500 C 728.226 771.550, 694.491 871.897, 683.725 891.390 C 681.191 895.978, 675.820 898.674, 671.415 897.568 C 667.032 896.468, 663.984 892.476, 651.703 871.750 C 645.266 860.888, 634.738 843.135, 628.307 832.299 C 595.505 777.037, 574.010 752.078, 547.925 738.962 C 520.102 724.973, 485.979 727.900, 457.698 746.701 C 431.835 763.895, 411.327 799.114, 399.588 846.500 C 394.732 866.100, 392.033 882.108, 386.519 924 C 386.100 927.180, 379.854 984.314, 378.389 998.361 C 377.995 1002.137, 377.106 1004.894, 375.889 1006.111 C 372.178 1009.822, 367.570 1007.830, 365.950 1001.815 C 357.147 969.121, 347.986 909.609, 342.580 850 C 339.031 810.858, 333.772 732.022, 332.541 699.500 C 331.600 674.627, 330.909 667.170, 329.435 665.946 C 328.637 665.284, 320.734 664.463, 310.288 663.957 C 300.505 663.484, 287.325 662.844, 281 662.535 C 274.675 662.227, 264.325 661.740, 258 661.452 C 251.675 661.165, 243.264 660.694, 239.308 660.407 C 232.854 659.937, 231.892 660.108, 229.926 662.074 C 227.768 664.232, 227.746 664.561, 228.410 684.882 C 228.780 696.222, 229.509 714.725, 230.029 726 C 230.898 744.823, 231.190 749.881, 232.506 769 C 232.753 772.575, 233.433 783.150, 234.018 792.500 C 238.063 857.099, 246.652 931.517, 255.542 979 C 273.589 1075.383, 297.245 1129.806, 332.340 1155.678 C 351.009 1169.440, 375.829 1176.227, 395.977 1173.080 C 429.478 1167.846, 452.286 1144.051, 465.443 1100.610 C 472.398 1077.645, 476.700 1051.429, 483.511 990.500 C 483.756 988.300, 485.341 974.125, 487.031 959 C 491.774 916.563, 497.916 878.220, 502.518 862.316 C 504.410 855.777, 507.701 853, 513.558 853 C 516.947 853, 518.439 853.598, 520.673 855.854 C 523.415 858.623, 534.658 877.098, 560.014 920.500 C 592.317 975.794, 615.539 1002.645, 643 1016.451 C 669.455 1029.752, 698.531 1029.039, 720.353 1014.554 C 737.821 1002.960, 753.104 983.278, 768.928 952 C 793.526 903.380, 815.818 839.939, 858.001 698.500 C 865.218 674.300, 872.233 650.793, 873.590 646.263 C 876.859 635.346, 880.361 632.095, 887.427 633.420 C 894.276 634.705, 894.695 635.905, 899.547 668.131 C 918.436 793.588, 937.805 869.166, 964.480 921.500 C 987.263 966.196, 1012.608 990.185, 1047.616 1000.185 C 1054.453 1002.138, 1057.890 1002.441, 1073.500 1002.468 C 1095.402 1002.507, 1100.994 1001.200, 1120.500 991.488 C 1136.031 983.754, 1147.549 975.332, 1162.870 960.504 C 1202.269 922.372, 1239.539 864.073, 1288.174 764.500 C 1297.633 745.133, 1298.647 741.125, 1294.734 738.561 C 1293.488 737.745, 1274.272 728.488, 1252.031 717.990 C 1222.021 703.825, 1210.809 698.980, 1208.547 699.202 C 1205.606 699.490, 1204.925 700.652, 1189 732.532 C 1150.572 809.461, 1122.266 854.543, 1095.032 882.191 C 1083.748 893.647, 1081.172 895.005, 1073.479 893.562 C 1067.199 892.384, 1063.368 887.785, 1055.985 872.560 C 1048.296 856.704, 1042.292 840.599, 1035.629 817.959 C 1016.412 752.653, 1002.285 669.857, 984.023 515.500 C 981.811 496.800, 979.759 479.475, 979.463 477 C 972.630 419.836, 952.540 387.066, 920.328 380.542 C 913.192 379.097, 902.624 378.289, 897.500 378.798 M 1149.650 1040.958 C 1147.324 1054.967, 1137.024 1066.420, 1122.095 1071.596 C 1118.468 1072.854, 1116.496 1073.909, 1117.712 1073.941 C 1122.856 1074.078, 1131.224 1078.313, 1137.100 1083.753 C 1143.751 1089.911, 1146.526 1094.497, 1149.021 1103.454 L 1150.679 1109.408 1151.372 1105.073 C 1153.597 1091.162, 1165.639 1078.355, 1179.934 1074.696 L 1185.320 1073.318 1180.410 1072.083 C 1165.840 1068.419, 1153.755 1055.506, 1151.155 1040.824 L 1150.390 1036.500 1149.650 1040.958 M 541 1178.487 L 541 1278 572.988 1278 L 604.975 1278 605.238 1241.555 L 605.500 1205.110 619.500 1241.555 L 633.500 1278.001 653.972 1277.751 L 674.443 1277.500 688.972 1240.828 C 696.962 1220.659, 703.837 1203.822, 704.250 1203.412 C 704.663 1203.002, 705 1219.617, 705 1240.333 L 705 1278 736.500 1278 L 768 1278 768 1178.500 L 768 1079 735.250 1079.030 L 702.500 1079.059 678.649 1122.530 C 665.531 1146.438, 654.506 1165.984, 654.149 1165.965 C 653.792 1165.946, 643.074 1146.483, 630.330 1122.715 L 607.160 1079.500 574.080 1079.237 L 541 1078.973 541 1178.487 M 777 1106 L 777 1133 803 1133.125 C 817.300 1133.194, 829.563 1133.306, 830.250 1133.375 C 831.235 1133.473, 831.554 1148.834, 831.757 1205.750 L 832.013 1278 863.500 1278 L 894.987 1278 895.243 1205.750 L 895.500 1133.500 920.500 1133.274 C 934.250 1133.150, 946.513 1133.038, 947.750 1133.024 L 950 1133 950 1106 L 950 1079 863.500 1079 L 777 1079 777 1106 M 1384 1178.500 L 1384 1278 1416 1278 L 1448 1278 1448 1178.500 L 1448 1079 1416 1079 L 1384 1079 1384 1178.500 M 1599.882 1104.250 C 1599.771 1127.766, 1599.852 1132.143, 1600.404 1132.726 C 1600.522 1132.850, 1612.630 1132.988, 1627.309 1133.033 L 1654 1133.113 1654 1205.390 C 1654 1245.142, 1654.187 1277.854, 1654.416 1278.083 C 1654.644 1278.312, 1669.044 1278.375, 1686.416 1278.222 L 1718 1277.945 1718 1205.443 L 1718 1132.940 1744.750 1133.034 L 1771.500 1133.127 1771.766 1106.064 L 1772.032 1079 1686.016 1079 L 1600 1079 1599.882 1104.250 M 1057.112 1123.581 C 1043.816 1127.156, 1031.615 1136.840, 1026.115 1148.183 L 1023.051 1154.500 1023.026 1139.750 L 1023 1125 990.750 1125 L 958.500 1125 958.762 1201.500 L 959.025 1278 992.512 1278 L 1026 1278 1026 1237.366 C 1026 1208.491, 1026.350 1195.541, 1027.211 1192.616 C 1028.923 1186.795, 1038.004 1177.860, 1044.428 1175.676 C 1054.389 1172.288, 1063.537 1173.980, 1070.858 1180.563 L 1075.513 1184.748 1092.343 1159.819 C 1101.599 1146.109, 1108.937 1134.280, 1108.651 1133.532 C 1107.916 1131.617, 1094.651 1125.323, 1087.540 1123.515 C 1080.069 1121.616, 1064.291 1121.650, 1057.112 1123.581 M 1290.782 1123.483 C 1276.523 1127.114, 1263.255 1137.573, 1257.141 1150 C 1255.382 1153.575, 1254.009 1155.825, 1254.090 1155 C 1254.171 1154.175, 1254.184 1147.088, 1254.118 1139.250 L 1254 1125 1222.500 1125 L 1191 1125 1191 1225 L 1191 1325 1223 1325 L 1255 1325 1255 1286.866 L 1255 1248.731 1258.541 1255.810 C 1262.883 1264.489, 1269.541 1270.757, 1279.393 1275.441 C 1288.327 1279.689, 1295.948 1281.244, 1307.524 1281.181 C 1339.728 1281.006, 1363.027 1261.822, 1372.113 1227.999 C 1374.055 1220.771, 1374.404 1216.957, 1374.444 1202.500 C 1374.484 1187.747, 1374.193 1184.471, 1372.238 1177.711 C 1364.457 1150.810, 1348.074 1132.857, 1324.500 1125.398 C 1314.388 1122.199, 1299.212 1121.337, 1290.782 1123.483 M 1530 1122.613 C 1522.615 1123.514, 1511.235 1126.334, 1505 1128.808 C 1493.981 1133.179, 1486.849 1137.953, 1477.966 1146.902 C 1471.191 1153.728, 1468.575 1157.252, 1465.276 1164 C 1462.991 1168.675, 1460.385 1175.200, 1459.486 1178.500 C 1457.228 1186.784, 1456.393 1208.375, 1457.983 1217.378 C 1463.575 1249.057, 1487.504 1272.159, 1522.448 1279.616 C 1532.063 1281.667, 1551.406 1281.607, 1561.493 1279.493 C 1580.105 1275.594, 1596.758 1265.554, 1607.603 1251.694 C 1612.647 1245.247, 1613.002 1244.475, 1611.450 1243.340 C 1610.509 1242.651, 1600.204 1237.257, 1588.550 1231.352 L 1567.362 1220.615 1563.431 1223.768 C 1557.976 1228.143, 1552.011 1230, 1543.412 1230 C 1533.511 1230, 1526.464 1227.311, 1521.093 1221.485 C 1513.693 1213.457, 1510.414 1213.963, 1569.542 1214.018 C 1598.440 1214.044, 1622.577 1213.762, 1623.180 1213.389 C 1625.009 1212.258, 1623.496 1188.800, 1620.994 1179.501 C 1613.713 1152.439, 1592.938 1132.007, 1565.500 1124.923 C 1557.669 1122.901, 1538.080 1121.626, 1530 1122.613 M 1118.762 1201.500 L 1119.025 1278 1150.512 1278 L 1182 1278 1182 1201.500 L 1182 1125 1150.250 1125 L 1118.500 1125 1118.762 1201.500 M 1536.723 1173.002 C 1532.153 1173.806, 1523.779 1177.931, 1522.493 1180.012 C 1522.098 1180.651, 1529.207 1181, 1542.596 1181 C 1562.912 1181, 1563.277 1180.963, 1561.584 1179.092 C 1557.328 1174.390, 1545.419 1171.473, 1536.723 1173.002 M 1278.500 1174.976 C 1265.277 1178.375, 1257.683 1188.397, 1257.768 1202.336 C 1257.873 1219.443, 1270.556 1231.112, 1287.562 1229.747 C 1302.251 1228.568, 1311.117 1217.948, 1311.191 1201.444 C 1311.231 1192.437, 1308.327 1185.292, 1302.652 1180.434 C 1296.333 1175.025, 1286.741 1172.857, 1278.500 1174.976" stroke="none" fill="#141c44" fill-rule="evenodd"/><path d="M 0 915 L 0 1830.001 1000.250 1829.750 L 2000.500 1829.500 2000.751 914.750 L 2001.001 -0 1000.501 -0 L 0 0 0 915 M 0.498 915.500 C 0.498 1418.750, 0.611 1624.475, 0.750 1372.667 C 0.889 1120.860, 0.889 709.110, 0.750 457.667 C 0.611 206.225, 0.498 412.250, 0.498 915.500 M 897.500 378.798 C 885.424 379.996, 872.140 386.888, 861.451 397.500 C 837.243 421.534, 822.801 457.420, 777.141 607 C 770.006 630.375, 761.385 658.950, 757.984 670.500 C 728.226 771.550, 694.491 871.897, 683.725 891.390 C 681.191 895.978, 675.820 898.674, 671.415 897.568 C 667.032 896.468, 663.984 892.476, 651.703 871.750 C 645.266 860.888, 634.738 843.135, 628.307 832.299 C 595.505 777.037, 574.010 752.078, 547.925 738.962 C 520.102 724.973, 485.979 727.900, 457.698 746.701 C 431.835 763.895, 411.327 799.114, 399.588 846.500 C 394.732 866.100, 392.033 882.108, 386.519 924 C 386.100 927.180, 379.854 984.314, 378.389 998.361 C 377.995 1002.137, 377.106 1004.894, 375.889 1006.111 C 372.178 1009.822, 367.570 1007.830, 365.950 1001.815 C 357.147 969.121, 347.986 909.609, 342.580 850 C 339.031 810.858, 333.772 732.022, 332.541 699.500 C 331.600 674.627, 330.909 667.170, 329.435 665.946 C 328.637 665.284, 320.734 664.463, 310.288 663.957 C 300.505 663.484, 287.325 662.844, 281 662.535 C 274.675 662.227, 264.325 661.740, 258 661.452 C 251.675 661.165, 243.264 660.694, 239.308 660.407 C 232.854 659.937, 231.892 660.108, 229.926 662.074 C 227.768 664.232, 227.746 664.561, 228.410 684.882 C 228.780 696.222, 229.509 714.725, 230.029 726 C 230.898 744.823, 231.190 749.881, 232.506 769 C 232.753 772.575, 233.433 783.150, 234.018 792.500 C 238.063 857.099, 246.652 931.517, 255.542 979 C 273.589 1075.383, 297.245 1129.806, 332.340 1155.678 C 351.009 1169.440, 375.829 1176.227, 395.977 1173.080 C 429.478 1167.846, 452.286 1144.051, 465.443 1100.610 C 472.398 1077.645, 476.700 1051.429, 483.511 990.500 C 483.756 988.300, 485.341 974.125, 487.031 959 C 491.774 916.563, 497.916 878.220, 502.518 862.316 C 504.410 855.777, 507.701 853, 513.558 853 C 516.947 853, 518.439 853.598, 520.673 855.854 C 523.415 858.623, 534.658 877.098, 560.014 920.500 C 592.317 975.794, 615.539 1002.645, 643 1016.451 C 669.455 1029.752, 698.531 1029.039, 720.353 1014.554 C 737.821 1002.960, 753.104 983.278, 768.928 952 C 793.526 903.380, 815.818 839.939, 858.001 698.500 C 865.218 674.300, 872.233 650.793, 873.590 646.263 C 876.859 635.346, 880.361 632.095, 887.427 633.420 C 894.276 634.705, 894.695 635.905, 899.547 668.131 C 918.436 793.588, 937.805 869.166, 964.480 921.500 C 987.263 966.196, 1012.608 990.185, 1047.616 1000.185 C 1054.453 1002.138, 1057.890 1002.441, 1073.500 1002.468 C 1095.402 1002.507, 1100.994 1001.200, 1120.500 991.488 C 1136.031 983.754, 1147.549 975.332, 1162.870 960.504 C 1202.269 922.372, 1239.539 864.073, 1288.174 764.500 C 1297.633 745.133, 1298.647 741.125, 1294.734 738.561 C 1293.488 737.745, 1274.272 728.488, 1252.031 717.990 C 1222.021 703.825, 1210.809 698.980, 1208.547 699.202 C 1205.606 699.490, 1204.925 700.652, 1189 732.532 C 1150.572 809.461, 1122.266 854.543, 1095.032 882.191 C 1083.748 893.647, 1081.172 895.005, 1073.479 893.562 C 1067.199 892.384, 1063.368 887.785, 1055.985 872.560 C 1048.296 856.704, 1042.292 840.599, 1035.629 817.959 C 1016.412 752.653, 1002.285 669.857, 984.023 515.500 C 981.811 496.800, 979.759 479.475, 979.463 477 C 972.630 419.836, 952.540 387.066, 920.328 380.542 C 913.192 379.097, 902.624 378.289, 897.500 378.798 M 1149.650 1040.958 C 1147.324 1054.967, 1137.024 1066.420, 1122.095 1071.596 C 1118.468 1072.854, 1116.496 1073.909, 1117.712 1073.941 C 1122.856 1074.078, 1131.224 1078.313, 1137.100 1083.753 C 1143.751 1089.911, 1146.526 1094.497, 1149.021 1103.454 L 1150.679 1109.408 1151.372 1105.073 C 1153.597 1091.162, 1165.639 1078.355, 1179.934 1074.696 L 1185.320 1073.318 1180.410 1072.083 C 1165.840 1068.419, 1153.755 1055.506, 1151.155 1040.824 L 1150.390 1036.500 1149.650 1040.958 M 541 1178.487 L 541 1278 572.988 1278 L 604.975 1278 605.238 1241.555 L 605.500 1205.110 619.500 1241.555 L 633.500 1278.001 653.972 1277.751 L 674.443 1277.500 688.972 1240.828 C 696.962 1220.659, 703.837 1203.822, 704.250 1203.412 C 704.663 1203.002, 705 1219.617, 705 1240.333 L 705 1278 736.500 1278 L 768 1278 768 1178.500 L 768 1079 735.250 1079.030 L 702.500 1079.059 678.649 1122.530 C 665.531 1146.438, 654.506 1165.984, 654.149 1165.965 C 653.792 1165.946, 643.074 1146.483, 630.330 1122.715 L 607.160 1079.500 574.080 1079.237 L 541 1078.973 541 1178.487 M 777 1106 L 777 1133 803 1133.125 C 817.300 1133.194, 829.563 1133.306, 830.250 1133.375 C 831.235 1133.473, 831.554 1148.834, 831.757 1205.750 L 832.013 1278 863.500 1278 L 894.987 1278 895.243 1205.750 L 895.500 1133.500 920.500 1133.274 C 934.250 1133.150, 946.513 1133.038, 947.750 1133.024 L 950 1133 950 1106 L 950 1079 863.500 1079 L 777 1079 777 1106 M 1384 1178.500 L 1384 1278 1416 1278 L 1448 1278 1448 1178.500 L 1448 1079 1416 1079 L 1384 1079 1384 1178.500 M 1599.882 1104.250 C 1599.771 1127.766, 1599.852 1132.143, 1600.404 1132.726 C 1600.522 1132.850, 1612.630 1132.988, 1627.309 1133.033 L 1654 1133.113 1654 1205.390 C 1654 1245.142, 1654.187 1277.854, 1654.416 1278.083 C 1654.644 1278.312, 1669.044 1278.375, 1686.416 1278.222 L 1718 1277.945 1718 1205.443 L 1718 1132.940 1744.750 1133.034 L 1771.500 1133.127 1771.766 1106.064 L 1772.032 1079 1686.016 1079 L 1600 1079 1599.882 1104.250 M 1057.112 1123.581 C 1043.816 1127.156, 1031.615 1136.840, 1026.115 1148.183 L 1023.051 1154.500 1023.026 1139.750 L 1023 1125 990.750 1125 L 958.500 1125 958.762 1201.500 L 959.025 1278 992.512 1278 L 1026 1278 1026 1237.366 C 1026 1208.491, 1026.350 1195.541, 1027.211 1192.616 C 1028.923 1186.795, 1038.004 1177.860, 1044.428 1175.676 C 1054.389 1172.288, 1063.537 1173.980, 1070.858 1180.563 L 1075.513 1184.748 1092.343 1159.819 C 1101.599 1146.109, 1108.937 1134.280, 1108.651 1133.532 C 1107.916 1131.617, 1094.651 1125.323, 1087.540 1123.515 C 1080.069 1121.616, 1064.291 1121.650, 1057.112 1123.581 M 1290.782 1123.483 C 1276.523 1127.114, 1263.255 1137.573, 1257.141 1150 C 1255.382 1153.575, 1254.009 1155.825, 1254.090 1155 C 1254.171 1154.175, 1254.184 1147.088, 1254.118 1139.250 L 1254 1125 1222.500 1125 L 1191 1125 1191 1225 L 1191 1325 1223 1325 L 1255 1325 1255 1286.866 L 1255 1248.731 1258.541 1255.810 C 1262.883 1264.489, 1269.541 1270.757, 1279.393 1275.441 C 1288.327 1279.689, 1295.948 1281.244, 1307.524 1281.181 C 1339.728 1281.006, 1363.027 1261.822, 1372.113 1227.999 C 1374.055 1220.771, 1374.404 1216.957, 1374.444 1202.500 C 1374.484 1187.747, 1374.193 1184.471, 1372.238 1177.711 C 1364.457 1150.810, 1348.074 1132.857, 1324.500 1125.398 C 1314.388 1122.199, 1299.212 1121.337, 1290.782 1123.483 M 1530 1122.613 C 1522.615 1123.514, 1511.235 1126.334, 1505 1128.808 C 1493.981 1133.179, 1486.849 1137.953, 1477.966 1146.902 C 1471.191 1153.728, 1468.575 1157.252, 1465.276 1164 C 1462.991 1168.675, 1460.385 1175.200, 1459.486 1178.500 C 1457.228 1186.784, 1456.393 1208.375, 1457.983 1217.378 C 1463.575 1249.057, 1487.504 1272.159, 1522.448 1279.616 C 1532.063 1281.667, 1551.406 1281.607, 1561.493 1279.493 C 1580.105 1275.594, 1596.758 1265.554, 1607.603 1251.694 C 1612.647 1245.247, 1613.002 1244.475, 1611.450 1243.340 C 1610.509 1242.651, 1600.204 1237.257, 1588.550 1231.352 L 1567.362 1220.615 1563.431 1223.768 C 1557.976 1228.143, 1552.011 1230, 1543.412 1230 C 1533.511 1230, 1526.464 1227.311, 1521.093 1221.485 C 1513.693 1213.457, 1510.414 1213.963, 1569.542 1214.018 C 1598.440 1214.044, 1622.577 1213.762, 1623.180 1213.389 C 1625.009 1212.258, 1623.496 1188.800, 1620.994 1179.501 C 1613.713 1152.439, 1592.938 1132.007, 1565.500 1124.923 C 1557.669 1122.901, 1538.080 1121.626, 1530 1122.613 M 1118.762 1201.500 L 1119.025 1278 1150.512 1278 L 1182 1278 1182 1201.500 L 1182 1125 1150.250 1125 L 1118.500 1125 1118.762 1201.500 M 1536.723 1173.002 C 1532.153 1173.806, 1523.779 1177.931, 1522.493 1180.012 C 1522.098 1180.651, 1529.207 1181, 1542.596 1181 C 1562.912 1181, 1563.277 1180.963, 1561.584 1179.092 C 1557.328 1174.390, 1545.419 1171.473, 1536.723 1173.002 M 1278.500 1174.976 C 1265.277 1178.375, 1257.683 1188.397, 1257.768 1202.336 C 1257.873 1219.443, 1270.556 1231.112, 1287.562 1229.747 C 1302.251 1228.568, 1311.117 1217.948, 1311.191 1201.444 C 1311.231 1192.437, 1308.327 1185.292, 1302.652 1180.434 C 1296.333 1175.025, 1286.741 1172.857, 1278.500 1174.976" stroke="none" fill="#fbfbfb" fill-rule="evenodd"/></svg>